<svg width="36" height="32" viewBox="0 0 36 32" fill="none" xmlns="http://www.w3.org/2000/svg">
<g clip-path="url(#clip0_199_345)">
<path d="M30.0353 13.5733L18.6947 3.06667C18.558 2.9417 18.3953 2.84251 18.216 2.77481C18.0368 2.70712 17.8445 2.67227 17.6504 2.67227C17.4562 2.67227 17.2639 2.70712 17.0847 2.77481C16.9054 2.84251 16.7428 2.9417 16.606 3.06667L5.2654 13.5867C4.99098 13.8374 4.77426 14.1351 4.62781 14.4624C4.48135 14.7897 4.40809 15.1401 4.41228 15.4933V26.6667C4.41114 27.3492 4.69877 28.0062 5.21594 28.5023C5.73311 28.9984 6.44044 29.2958 7.19227 29.3333H28.1084C28.8603 29.2958 29.5676 28.9984 30.0848 28.5023C30.6019 28.0062 30.8896 27.3492 30.8884 26.6667V15.4933C30.8896 14.7772 30.5837 14.0888 30.0353 13.5733ZM14.7086 26.6667V18.6667H20.5921V26.6667H14.7086ZM27.9466 26.6667H23.5339V17.3333C23.5339 16.9797 23.379 16.6406 23.1031 16.3905C22.8273 16.1405 22.4531 16 22.063 16H13.2377C12.8476 16 12.4734 16.1405 12.1976 16.3905C11.9217 16.6406 11.7668 16.9797 11.7668 17.3333V26.6667H7.35407V15.44L17.6504 5.90667L27.9466 15.4933V26.6667Z" fill="#0099FF"/>
</g>
<defs>
<clipPath id="clip0_199_345">
<rect width="35.3015" height="32" fill="white"/>
</clipPath>
</defs>
</svg>
