<svg width="35" height="32" viewBox="0 0 35 32" fill="none" xmlns="http://www.w3.org/2000/svg">
<g clip-path="url(#clip0_199_224)">
<path d="M26.8075 4.21758L23.6108 5.40539L22.986 4.07812L21.5677 4.22086C20.1446 4.36354 18.9053 4.84118 17.7202 5.71044C16.5349 4.83905 15.3044 4.36184 13.9008 4.2208L12.4821 4.07812L11.8577 5.40539L8.66035 4.21758L2.6626 17.2173L6.244 18.486V27.9215L17.7195 22.5918L29.1951 27.9215V18.4947L32.8059 17.2177L26.8075 4.21758ZM8.0095 25.2681V19.1119L15.5281 21.7762L8.0095 25.2681ZM16.8369 20.4844L5.00948 16.2933L9.60439 6.33415L11.1496 6.90864L7.20276 15.2935L16.8368 18.7352L16.8369 20.4844ZM16.8369 16.9778L10.1881 14.6027C11.3239 14.0635 12.6727 13.9936 13.9038 14.4589L16.8368 15.6516L16.8369 16.9778ZM16.8369 13.8614L14.5817 12.9446C13.1847 12.4133 11.6776 12.3767 10.31 12.7856L13.5807 5.83835C13.7623 5.88134 15.1634 5.83988 16.8369 7.159V13.8614ZM18.6022 7.16004C20.2445 5.87215 21.7947 5.86039 21.8879 5.83841L25.145 12.7587C23.8562 12.3772 22.455 12.4286 21.0974 12.9446L18.6022 13.8937V7.16004ZM18.6022 15.6659L21.7659 14.4626C22.9622 14.0073 24.2106 14.0669 25.294 14.5961L18.6022 16.9795V15.6659ZM27.4296 25.2681L19.9128 21.7768L27.4296 19.1188V25.2681ZM18.6022 20.4855V18.7356L28.2657 15.2941L24.3182 6.90864L25.8636 6.3342L30.4586 16.2929L18.6022 20.4855Z" fill="#8789A3"/>
</g>
<defs>
<clipPath id="clip0_199_224">
<rect width="30.1433" height="28" fill="white" transform="translate(2.6626 2)"/>
</clipPath>
</defs>
</svg>
