<svg width="36" height="32" viewBox="0 0 36 32" fill="none" xmlns="http://www.w3.org/2000/svg">
<g clip-path="url(#clip0_199_228)">
<path d="M32.1426 3H31.3225C29.9843 3 28.7935 3.59922 28.0446 4.52344H28.0424C26.7024 4.52344 25.5108 5.12367 24.7623 6.04941V6.04688C22.5012 6.04688 20.6622 7.75556 20.6622 9.85547V13.5192L18.1475 15.8229L15.6327 13.5192V9.85547C15.6327 7.75556 13.7937 6.04688 11.5326 6.04688V6.04941C10.7841 5.12367 9.59251 4.52344 8.25247 4.52344H8.25029C7.50149 3.59922 6.31065 3 4.97237 3H4.15234V14.9651L9.96256 21.3828H9.0725V29H27.2224V21.3828H26.3324L32.1426 14.9651V3ZM13.9927 9.85547V12.164C13.4923 11.8835 12.9331 11.706 12.3526 11.6435V8.33203C12.3526 8.11062 12.3308 7.89328 12.2919 7.68203C13.2778 7.98012 13.9927 8.84137 13.9927 9.85547ZM9.0725 6.17738C10.027 6.49182 10.7126 7.3388 10.7126 8.33203V11.7709C10.3221 11.8771 9.95103 12.037 9.61153 12.2452L9.0725 11.745V6.17738ZM17.3274 27.4766H10.7126V22.9062H17.3274V27.4766ZM17.3274 21.3828H12.1055L5.7924 14.4101V4.654C6.74691 4.96828 7.43245 5.81531 7.43245 6.80859V12.3763L12.5926 17.1695L13.7527 16.0925L10.8114 13.3604C11.1384 13.2145 11.4986 13.138 11.8721 13.138C12.5292 13.138 13.147 13.3756 13.6117 13.8073L17.3274 17.2112V21.3828ZM25.5824 8.33203C25.5824 7.3388 26.2679 6.49182 27.2224 6.17738V11.745L26.6834 12.2452C26.3439 12.037 25.9728 11.8771 25.5824 11.7709V8.33203ZM22.3023 9.85547C22.3023 8.84142 23.0172 7.98012 24.003 7.68203C23.963 7.89672 23.9427 8.11416 23.9423 8.33203V11.6435C23.3618 11.706 22.8026 11.8835 22.3023 12.164V9.85547ZM25.5824 27.4766H18.9675V22.9062H25.5824V27.4766ZM30.5025 14.4101L24.1894 21.3828H18.9675V17.2112L22.6832 13.8073C23.1479 13.3756 23.7657 13.138 24.4228 13.138C24.7963 13.138 25.1565 13.2145 25.4835 13.3604L22.5423 16.0924L23.7023 17.1695L28.8625 12.3763V6.80859C28.8625 5.81536 29.548 4.96838 30.5025 4.65395V14.4101Z" fill="#8789A3"/>
<path d="M22.3022 24.4297H23.9423V25.9531H22.3022V24.4297Z" fill="#8789A3"/>
<path d="M12.3525 24.4297H13.9926V25.9531H12.3525V24.4297Z" fill="#8789A3"/>
</g>
<defs>
<clipPath id="clip0_199_228">
<rect width="27.9902" height="26" fill="white" transform="translate(4.15234 3)"/>
</clipPath>
</defs>
</svg>
